<!DOCTYPE svg PUBLIC "-//W3C//DTD SVG 1.1//EN" "http://www.w3.org/Graphics/SVG/1.1/DTD/svg11.dtd">
<!-- Uploaded to: SVG Repo, www.svgrepo.com, Transformed by: SVG Repo Mixer Tools -->
<svg height="800px" width="800px" version="1.1" id="Layer_1" xmlns="http://www.w3.org/2000/svg" xmlns:xlink="http://www.w3.org/1999/xlink" viewBox="-50.5 -50.5 606.00 606.00" xml:space="preserve" fill="#000000" transform="matrix(1, 0, 0, 1, 0, 0)" stroke="#000000" stroke-width="0.00505001">
<g id="SVGRepo_bgCarrier" stroke-width="0"/>
<g id="SVGRepo_tracerCarrier" stroke-linecap="round" stroke-linejoin="round" stroke="#CCCCCC" stroke-width="4.040007999999999"/>
<g id="SVGRepo_iconCarrier"> <g transform="translate(0 1)"> <g> <path style="fill:#bb00ff;" d="M494.865,362.294c-1.679-8.393-6.715-15.948-13.43-20.984L254.812,169.245 c-1.679-0.839-3.357-0.839-4.197,0L23.153,341.31c-6.715,5.036-11.751,12.59-13.43,20.984 c-4.197,21.823,11.751,40.289,32.734,40.289h75.541h8.393v-33.574h-1.679h-8.393H43.297c-0.839,0-0.839-0.839-0.839-1.679 l206.479-156.957h0.839l209.836,158.636l0,0h-75.541h-5.875v33.574h8.393h75.541C483.114,402.582,499.061,384.117,494.865,362.294 "/> <path style="fill:#bb00ff;" d="M504.937,344.668c0.839-8.393-6.715-15.948-13.43-20.984L264.884,151.618 c-0.839-0.839-2.518-0.839-3.357,0c0,0-1.679,11.751,0,15.108l203.961,156.957c6.715,5.036,11.751,12.59,13.429,20.984 c4.197,21.823-12.59,40.289-32.734,40.289h26.02C492.347,384.956,502.419,369.848,504.937,344.668"/> </g> <path style="fill:#bb00ff;" d="M229.632,169.245l21.823,6.715l0.839-36.092c0-7.554-5.875-14.269-14.269-14.269h2.518 c-7.554,0-14.269,5.875-14.269,14.269v47.003l22.662-17.626C251.455,168.405,227.953,168.405,229.632,169.245"/> <path style="fill:#bb00ff;" d="M279.993,117.205H257.33c-0.839,0-0.839,0-1.679,0c6.715,0.839,12.59,6.715,12.59,13.43v52.039 c0.839,0,1.679,0,2.518,0.839l23.502,17.626v-69.666C294.261,123.081,288.386,117.205,279.993,117.205"/> <path style="fill:#bb00ff;" d="M263.206,125.599h-22.662c-0.839,0-0.839,0-1.679,0c6.715,0.839,12.59,6.715,12.59,13.43v28.538 c0.839,0,1.679,0,2.518,0.839l22.662,17.626v-47.003C277.475,131.474,271.599,125.599,263.206,125.599"/> <path style="fill:#bb00ff;" d="M260.688,132.314c-5.036,0-8.393-3.357-8.393-8.393V92.864c0-5.036,3.357-9.233,8.393-9.233 c18.466,0,33.574-15.108,33.574-33.574s-15.108-33.574-33.574-33.574s-33.574,15.108-33.574,33.574 c0,5.036-3.357,8.393-8.393,8.393c-5.036,0-8.393-3.357-8.393-8.393c0-27.698,22.662-50.361,50.361-50.361 s50.361,22.662,50.361,50.361c0,25.18-18.466,45.325-41.967,49.521v23.502C269.081,128.117,265.724,132.314,260.688,132.314z"/> <path style="fill:#bb00ff;" d="M496.543,362.294c-1.679-8.393-6.715-15.948-13.429-20.984L255.652,169.245 c-0.839-0.839-2.518-0.839-3.357,0c0,0-1.679,3.357,0,6.715L456.255,341.31c6.715,5.036,20.144,14.269,21.823,22.662 c4.197,21.823-20.144,38.61-41.128,38.61h26.02C483.953,402.582,500.74,384.117,496.543,362.294"/> <path style="fill:#feecec;" d="M7.206,362.294c1.679-8.393,6.715-15.948,13.43-20.984l227.462-172.066 c0.839-0.839,2.518-0.839,3.357,0c0,0,2.518,3.357,0.839,6.715L51.691,335.435c-3.357,2.518-6.715,5.875-9.233,8.393 c-5.036,5.036-10.072,10.072-12.59,15.948c-9.233,18.466,15.948,40.289,36.931,40.289l-26.859,2.518 C19.796,402.582,3.009,384.117,7.206,362.294"/> <path style="fill:#fdf863;" d="M341.265,494.91H138.143c-6.715,0-11.751-5.036-11.751-11.751v-127.58 c0-6.715,5.036-11.751,11.751-11.751h203.121c6.715,0,11.751,5.036,11.751,11.751v127.58 C353.016,489.874,347.979,494.91,341.265,494.91"/> <path style="fill:#f9b43e;" d="M366.445,343.828h-25.18c6.715,0,11.751,5.036,11.751,11.751v127.58 c0,6.715-5.036,11.751-11.751,11.751h25.18c6.715,0,11.751-5.036,11.751-11.751v-127.58 C378.196,348.864,373.16,343.828,366.445,343.828"/> <path d="M218.72,203.658v-63.79c0-12.59,10.072-22.662,22.662-22.662h22.662c12.59,0,22.662,10.072,22.662,22.662v63.79 l-33.574-25.18L218.72,203.658z M249.776,175.959L249.776,175.959L249.776,175.959z M259.848,162.53l9.233,7.554v-30.216 c0-3.357-2.518-5.875-5.875-5.875h-22.662c-3.357,0-5.875,2.518-5.875,5.875v30.216l9.233-7.554 C248.937,159.173,255.652,159.173,259.848,162.53L259.848,162.53z"/> <path d="M252.294,133.153c-5.036,0-8.393-3.357-8.393-8.393V92.864c0-5.036,3.357-9.233,8.393-9.233 c18.466,0,33.574-15.108,33.574-33.574s-15.108-33.574-33.574-33.574S218.72,31.592,218.72,50.058c0,5.036-3.357,8.393-8.393,8.393 s-8.393-3.357-8.393-8.393c0-27.698,22.662-50.361,50.361-50.361s50.361,22.662,50.361,50.361c0,25.18-18.466,45.325-41.967,49.521 v24.341C260.688,128.956,257.33,133.153,252.294,133.153z"/> <path d="M366.445,503.304H138.143c-10.911,0-20.144-9.233-20.144-20.144v-127.58c0-10.911,9.233-20.144,20.144-20.144h228.302 c10.911,0,20.144,9.233,20.144,20.144v127.58C386.589,494.071,377.356,503.304,366.445,503.304z M138.143,352.222 c-1.679,0-3.357,1.679-3.357,3.357v127.58c0,1.679,1.679,3.357,3.357,3.357h228.302c1.679,0,3.357-1.679,3.357-3.357v-127.58 c0-1.679-1.679-3.357-3.357-3.357H138.143z"/> <path d="M168.36,461.337h-41.967c-5.036,0-8.393-3.357-8.393-8.393s3.357-8.393,8.393-8.393h41.967 c5.036,0,8.393,3.357,8.393,8.393S173.396,461.337,168.36,461.337z"/> <path d="M378.196,461.337h-41.967c-5.036,0-8.393-3.357-8.393-8.393s3.357-8.393,8.393-8.393h41.967 c5.036,0,8.393,3.357,8.393,8.393S383.232,461.337,378.196,461.337z"/> <path d="M294.261,461.337H218.72c-5.036,0-8.393-3.357-8.393-8.393s3.357-8.393,8.393-8.393h75.541 c5.036,0,8.393,3.357,8.393,8.393S299.297,461.337,294.261,461.337z"/> <path d="M462.13,410.976h-92.328v-50.361h65.469l-184.656-140.17L65.12,360.615h69.666v50.361H42.458 c-12.59,0-24.341-5.875-32.734-15.108c-8.393-10.072-10.911-22.662-9.233-35.252c1.679-10.072,7.554-19.305,16.787-26.02 L244.74,162.53c4.197-3.357,10.072-3.357,14.269,0l227.462,172.066c8.393,6.715,15.108,15.948,16.787,26.02l0,0 c2.518,12.59-0.839,25.18-9.233,35.252C486.471,405.1,474.72,410.976,462.13,410.976z M386.589,394.189h75.541 c7.554,0,14.269-3.357,19.305-9.233s6.715-13.43,5.036-20.984l0,0c-0.839-5.875-5.036-11.751-10.072-15.948L252.294,178.478 L28.189,348.025c-5.875,4.197-9.233,10.072-10.072,15.948c-1.679,7.554,0,15.108,5.036,20.984s11.751,9.233,19.305,9.233h75.541 v-16.787H43.297c-4.197,0-7.554-2.518-9.233-6.715c-1.679-4.197,0-8.393,3.357-10.911L246.419,201.14h6.715l210.675,159.475 c3.357,2.518,5.036,6.715,4.197,10.072l-2.518,5.036l-5.875,1.679h-73.023V394.189z M249.776,175.959L249.776,175.959 L249.776,175.959z"/> </g> </g>
</svg>